<?xml version="1.0" encoding="UTF-8"?>
<!DOCTYPE svg PUBLIC "-//W3C//DTD SVG 1.1//EN" "http://www.w3.org/Graphics/SVG/1.1/DTD/svg11.dtd">
<svg version="1.1" xmlns="http://www.w3.org/2000/svg" xmlns:xlink="http://www.w3.org/1999/xlink" x="0" y="0" width="24" height="50" viewBox="0, 0, 24, 50">
  <g id="Layer_1">
    <path d="M14.884,28 C18.814,28 22,30.684 22,33.995 L22,39.005 C22,42.316 18.814,45 14.884,45 L9.116,45 C5.186,45 2,42.316 2,39.005 L2,33.995 C2,30.684 5.186,28 9.116,28 L14.884,28 z M8.448,32.365 Q7.356,32.365 6.438,32.676 Q5.52,32.988 4.848,33.564 Q4.176,34.139 3.798,34.955 Q3.42,35.77 3.42,36.777 Q3.42,37.856 3.822,38.678 Q4.224,39.499 4.914,40.051 Q5.604,40.602 6.51,40.872 Q7.416,41.142 8.424,41.142 Q8.832,41.142 9.282,41.1 Q9.732,41.058 10.176,40.986 Q10.62,40.914 11.04,40.818 Q11.46,40.722 11.808,40.626 Q11.796,40.494 11.784,40.278 Q11.772,40.063 11.772,39.895 Q11.772,39.307 11.79,38.654 Q11.808,38 11.844,37.209 Q11.52,37.281 11.166,37.299 Q10.812,37.317 10.476,37.317 Q10.164,37.317 9.816,37.287 Q9.468,37.257 9.108,37.209 Q9.132,37.928 9.156,38.624 Q9.18,39.319 9.18,40.039 Q9.012,40.086 8.856,40.116 Q8.7,40.146 8.496,40.146 Q7.332,40.146 6.804,39.337 Q6.276,38.528 6.276,36.837 Q6.276,36.226 6.39,35.614 Q6.504,35.003 6.786,34.517 Q7.068,34.031 7.548,33.732 Q8.028,33.432 8.76,33.432 Q9.564,33.432 10.092,33.774 Q10.62,34.115 10.86,34.871 L11.304,34.871 Q11.4,34.367 11.526,33.959 Q11.652,33.552 11.856,33.072 Q11.064,32.724 10.188,32.545 Q9.312,32.365 8.448,32.365 z M21.06,32.473 Q20.88,32.509 20.682,32.545 Q20.484,32.581 20.22,32.581 Q20.016,32.581 19.812,32.557 Q19.608,32.533 19.392,32.473 Q19.224,33.132 19.014,33.774 Q18.804,34.415 18.6,35.063 Q18.324,35.926 18.09,36.597 Q17.856,37.269 17.616,37.904 Q17.304,37.161 16.992,36.268 Q16.68,35.374 16.422,34.571 Q16.164,33.768 15.99,33.18 Q15.816,32.593 15.78,32.473 Q15.06,32.581 14.316,32.581 Q13.896,32.581 13.482,32.551 Q13.068,32.521 12.648,32.473 Q12.732,32.617 12.894,33 Q13.056,33.384 13.278,33.923 Q13.5,34.463 13.758,35.122 Q14.016,35.782 14.28,36.477 Q14.544,37.173 14.802,37.868 Q15.06,38.564 15.282,39.175 Q15.504,39.787 15.672,40.278 Q15.84,40.77 15.924,41.058 Q16.128,40.998 16.338,40.974 Q16.548,40.95 16.752,40.95 Q17.184,40.95 17.616,41.058 Q17.88,40.314 18.12,39.679 Q18.36,39.043 18.6,38.432 Q18.84,37.82 19.092,37.179 Q19.344,36.537 19.632,35.794 Q19.968,34.955 20.334,34.127 Q20.7,33.3 21.06,32.473 z" fill="#6FB3F3"/>
    <path d="M14.884,4 C18.814,4 22,6.684 22,9.995 L22,15.005 C22,18.316 18.814,21 14.884,21 L9.116,21 C5.186,21 2,18.316 2,15.005 L2,9.995 C2,6.684 5.186,4 9.116,4 L14.884,4 z M8.448,8.365 Q7.356,8.365 6.438,8.676 Q5.52,8.988 4.848,9.564 Q4.176,10.139 3.798,10.955 Q3.42,11.77 3.42,12.777 Q3.42,13.856 3.822,14.678 Q4.224,15.499 4.914,16.051 Q5.604,16.602 6.51,16.872 Q7.416,17.142 8.424,17.142 Q8.832,17.142 9.282,17.1 Q9.732,17.058 10.176,16.986 Q10.62,16.914 11.04,16.818 Q11.46,16.722 11.808,16.626 Q11.796,16.494 11.784,16.278 Q11.772,16.063 11.772,15.895 Q11.772,15.307 11.79,14.654 Q11.808,14 11.844,13.209 Q11.52,13.281 11.166,13.299 Q10.812,13.317 10.476,13.317 Q10.164,13.317 9.816,13.287 Q9.468,13.257 9.108,13.209 Q9.132,13.928 9.156,14.624 Q9.18,15.319 9.18,16.039 Q9.012,16.086 8.856,16.116 Q8.7,16.146 8.496,16.146 Q7.332,16.146 6.804,15.337 Q6.276,14.528 6.276,12.837 Q6.276,12.226 6.39,11.614 Q6.504,11.003 6.786,10.517 Q7.068,10.031 7.548,9.732 Q8.028,9.432 8.76,9.432 Q9.564,9.432 10.092,9.774 Q10.62,10.115 10.86,10.871 L11.304,10.871 Q11.4,10.367 11.526,9.959 Q11.652,9.552 11.856,9.072 Q11.064,8.724 10.188,8.545 Q9.312,8.365 8.448,8.365 z M21.06,8.473 Q20.88,8.509 20.682,8.545 Q20.484,8.581 20.22,8.581 Q20.016,8.581 19.812,8.557 Q19.608,8.533 19.392,8.473 Q19.224,9.132 19.014,9.774 Q18.804,10.415 18.6,11.063 Q18.324,11.926 18.09,12.597 Q17.856,13.269 17.616,13.904 Q17.304,13.161 16.992,12.268 Q16.68,11.374 16.422,10.571 Q16.164,9.768 15.99,9.18 Q15.816,8.593 15.78,8.473 Q15.06,8.581 14.316,8.581 Q13.896,8.581 13.482,8.551 Q13.068,8.521 12.648,8.473 Q12.732,8.617 12.894,9 Q13.056,9.384 13.278,9.923 Q13.5,10.463 13.758,11.122 Q14.016,11.782 14.28,12.477 Q14.544,13.173 14.802,13.868 Q15.06,14.564 15.282,15.175 Q15.504,15.787 15.672,16.278 Q15.84,16.77 15.924,17.058 Q16.128,16.998 16.338,16.974 Q16.548,16.95 16.752,16.95 Q17.184,16.95 17.616,17.058 Q17.88,16.314 18.12,15.679 Q18.36,15.043 18.6,14.432 Q18.84,13.82 19.092,13.179 Q19.344,12.537 19.632,11.794 Q19.968,10.955 20.334,10.127 Q20.7,9.3 21.06,8.473 z" fill="#BBBBBB"/>
  </g>
</svg>
