<svg width="24" height="48" xmlns="http://www.w3.org/2000/svg">
 <title>Markdown</title>Created with Sketch (http://www.bohemiancoding.com/sketch)

 <g>
  <title>background</title>
  <rect fill="none" id="canvas_background" height="402" width="582" y="-1" x="-1"/>
 </g>
 <g>
  <title>Layer 1</title>
  <g id="svg_1">
   <path fill="#BBBBBB" id="Markdown" d="m4.37019,18c-0.75552,0 -1.37019,-0.63084 -1.37019,-1.40625l0,-9.1875c0,-0.77541 0.61467,-1.40625 1.37019,-1.40625l15.25962,0c0.75552,0 1.37019,0.63084 1.37019,1.40625l0,9.1875c0,0.77541 -0.61467,1.40625 -1.37019,1.40625l-15.25962,0zm3.37981,-3l0,-3.44118l1.75,2.205891l1.75,-2.205891l0,3.44118l1.75,0l0,-6l-1.75,0l-1.75,2.20588l-1.75,-2.20588l-1.75,0l0,6l1.75,0l0,0zm11.25,-3.04348l-1.66667,0l0,-2.95652l-1.66666,0l0,2.95652l-1.66667,0l2.5,3.04348l2.5,-3.04348l0,0zm0,0"/>
   <path fill="#78B2F2" id="Markdown On" d="m4.37019,42c-0.75552,0 -1.37019,-0.63084 -1.37019,-1.40625l0,-9.1875c0,-0.77541 0.61467,-1.40625 1.37019,-1.40625l15.25962,0c0.75552,0 1.37019,0.63084 1.37019,1.40625l0,9.1875c0,0.77541 -0.61467,1.40625 -1.37019,1.40625l-15.25962,0zm3.37981,-3l0,-3.441181l1.75,2.205891l1.75,-2.205891l0,3.441181l1.75,0l0,-6l-1.75,0l-1.75,2.205879l-1.75,-2.205879l-1.75,0l0,6l1.75,0l0,0zm11.25,-3.04348l-1.66667,0l0,-2.95652l-1.66666,0l0,2.95652l-1.66667,0l2.5,3.04348l2.5,-3.04348l0,0zm0,0"/>
  </g>
  <rect rx="2" id="svg_2" height="12.089804" width="18.134706" y="30.174435" x="3.148538" stroke-width="null" fill="#78B2F2"/>
  <rect rx="2" id="svg_3" height="12.089804" width="18.134706" y="5.831025" x="3.148538" stroke-width="null" fill="#BBBBBB"/>
  <text stroke-width="0" style="cursor: move;" font-weight="bold" xml:space="preserve" text-anchor="start" font-family="'Trebuchet MS', Gadget, sans-serif" font-size="11" id="svg_5" y="15.925738" x="4.875652" stroke="#ffffff" fill="#ffffff">GV</text>
  <text style="cursor: move;" stroke-width="0" font-weight="bold" xml:space="preserve" text-anchor="start" font-family="'Trebuchet MS', Gadget, sans-serif" font-size="11" id="svg_6" y="40.27821" x="4.875652" stroke="#ffffff" fill="#ffffff">GV</text>
 </g></svg>